<?xml version="1.0" encoding="UTF-8"?>
<svg width="512pt" height="512pt" version="1.1" viewBox="0 0 512 512" xmlns="http://www.w3.org/2000/svg">
 <g fill="#fff">
  <path d="m256 32c-123.52 0-224 100.48-224 224s101.28 224 224 224 224-100.16 224-224-100.48-224-224-224zm154.08 338.08c-18.719-47.199-80.641-82.078-154.08-82.078-73.441 0-135.36 34.879-154.08 82.078-23.68-31.84-37.922-71.359-37.922-114.08 0-105.92 86.078-192 192-192s192 86.078 192 192c0 42.719-14.238 82.238-37.922 114.08z"/>
  <path d="m336 176c0 44.184-35.816 80-80 80s-80-35.816-80-80 35.816-80 80-80 80 35.816 80 80"/>
 </g>
</svg>
