<?xml version="1.0" encoding="UTF-8"?>
<svg width="512pt" height="512pt" version="1.1" viewBox="0 0 512 512" xmlns="http://www.w3.org/2000/svg">
 <path d="m362.67 85.332h-64c0-15.242-8.1328-29.328-21.336-36.949-13.199-7.6211-29.465-7.6211-42.664 0-13.203 7.6211-21.336 21.707-21.336 36.949h-64c-16.973 0-33.25 6.7422-45.254 18.746s-18.746 28.281-18.746 45.254v213.34c0 16.973 6.7422 33.25 18.746 45.254s28.281 18.746 45.254 18.746h213.34c16.973 0 33.25-6.7422 45.254-18.746s18.746-28.281 18.746-45.254v-213.34c0-16.973-6.7422-33.25-18.746-45.254s-28.281-18.746-45.254-18.746zm42.668 277.33-0.003907 0.003907c-0.011719 11.312-4.5117 22.156-12.512 30.152-7.9961 8-18.84 12.5-30.152 12.512h-213.34c-11.312-0.011719-22.156-4.5117-30.152-12.512-8-7.9961-12.5-18.84-12.512-30.152v-213.34c0.011719-11.312 4.5117-22.156 12.512-30.152 7.9961-8 18.84-12.5 30.152-12.512h21.336c0 5.6562 2.2461 11.082 6.2461 15.082 4 4.0039 9.4297 6.25 15.086 6.25h128c5.6562 0 11.086-2.2461 15.086-6.25 4-4 6.2461-9.4258 6.2461-15.082h21.336c11.312 0.011719 22.156 4.5117 30.152 12.512 8 7.9961 12.5 18.84 12.512 30.152zm-64-96-0.003907 0.003907c0.003907 2.8281-1.1211 5.543-3.1211 7.543s-4.7148 3.125-7.543 3.1211h-64v64c0 5.8906-4.7773 10.668-10.668 10.668s-10.668-4.7773-10.668-10.668v-64h-64c-5.8906 0-10.664-4.7734-10.664-10.664s4.7734-10.668 10.664-10.668h64v-64c0-5.8906 4.7773-10.668 10.668-10.668s10.668 4.7773 10.668 10.668v64h64c2.8281 0 5.543 1.1211 7.543 3.1211 2 2.0039 3.125 4.7148 3.1211 7.5469z"/>
</svg>
