<?xml version="1.0" encoding="UTF-8"?>
<svg width="100pt" height="100pt" version="1.1" viewBox="0 0 100 100" xmlns="http://www.w3.org/2000/svg">
 <path d="m61.938 54.227c-0.61328-0.55469-1.5625-0.50781-2.1172 0.10547l-8.2656 9.1406v-30.84c0-0.82812-0.67188-1.5-1.5-1.5-0.82813 0-1.5 0.67188-1.5 1.5v30.871l-8.3789-9.1758c-0.55859-0.60938-1.5078-0.65234-2.1172-0.097656-0.60938 0.55859-0.65234 1.5078-0.097656 2.1172l10.984 12.027c0.28516 0.3125 0.6875 0.48828 1.1055 0.48828h0.003907c0.42187 0 0.82422-0.17969 1.1094-0.49219l10.879-12.027c0.55859-0.61328 0.50781-1.5625-0.10547-2.1172z"/>
</svg>
