<?xml version="1.0" encoding="UTF-8"?>
<svg width="100pt" height="100pt" version="1.1" viewBox="0 0 100 100" xmlns="http://www.w3.org/2000/svg">
 <path d="m62.039 43.23-10.984-12.031c-0.28516-0.3125-0.6875-0.48828-1.1055-0.48828h-0.003907c-0.42187 0-0.82422 0.17969-1.1094 0.49219l-10.879 12.031c-0.55469 0.61328-0.50781 1.5625 0.10547 2.1172 0.28516 0.25781 0.64453 0.38672 1.0078 0.38672 0.41016 0 0.81641-0.16797 1.1133-0.49219l8.2656-9.1406v30.844c0 0.82812 0.67188 1.5 1.5 1.5s1.5-0.67188 1.5-1.5l-0.003907-30.871 8.3789 9.1758c0.5625 0.61328 1.5078 0.65234 2.1172 0.097656 0.61328-0.5625 0.65625-1.5078 0.097656-2.1211z"/>
</svg>
