<?xml version="1.0" encoding="UTF-8"?>
<svg width="512pt" height="512pt" version="1.1" viewBox="0 0 512 512" xmlns="http://www.w3.org/2000/svg">
 <g>
  <path d="m407.34 43.137h30.664v16h-30.664z"/>
  <path d="m239.82 166.96h210.27c34.145 0 61.91-27.777 61.91-61.91 0-34.137-27.777-61.91-61.91-61.91v16c25.32 0 45.91 20.602 45.91 45.91 0 25.312-20.594 45.91-45.91 45.91h-210.27c-25.32 0-45.91-20.602-45.91-45.91 0-25.312 20.602-45.91 45.91-45.91h150.84v-16l-150.84-0.003906c-34.145 0-61.91 27.777-61.91 61.91-0.003906 34.137 27.766 61.914 61.91 61.914z"/>
  <path d="m132.06 45.168-22.656 20.23c-11.367-13.594-28.434-22.266-47.496-22.266-34.133 0.003907-61.91 27.77-61.91 61.914s27.777 61.91 61.91 61.91c34.145 0 61.922-27.777 61.922-61.91 0-9.2656-2.1055-18.031-5.7695-25.93l24.656-22.016zm-24.23 59.879c0 25.32-20.602 45.91-45.922 45.91-25.316 0.003907-45.91-20.598-45.91-45.91s20.594-45.91 45.91-45.91c14.328 0 27.137 6.6016 35.559 16.91l-35.742 31.91-18.961-15.801-10.238 12.289 29.559 24.641 43.312-38.664c1.5547 4.6016 2.4336 9.5078 2.4336 14.625z"/>
  <path d="m61.91 194.1c-34.133 0-61.91 27.766-61.91 61.902 0 34.145 27.777 61.91 61.91 61.91 34.145 0 61.922-27.777 61.922-61.91 0-34.137-27.785-61.902-61.922-61.902zm0 107.81c-25.316 0-45.91-20.59-45.91-45.91 0-25.312 20.594-45.902 45.91-45.902 25.32 0 45.922 20.594 45.922 45.902 0 25.32-20.602 45.91-45.922 45.91z"/>
  <path d="m450.09 194.1h-210.27c-34.145 0-61.91 27.77-61.91 61.902 0 34.145 27.777 61.91 61.91 61.91h210.27c34.133 0 61.91-27.766 61.91-61.91 0-34.137-27.777-61.902-61.91-61.902zm0 107.81h-210.27c-25.32 0-45.91-20.594-45.91-45.91 0-25.312 20.602-45.902 45.91-45.902h210.27c25.316 0 45.91 20.59 45.91 45.902 0 25.32-20.594 45.91-45.91 45.91z"/>
  <path d="m61.91 345.04c-34.133 0-61.91 27.785-61.91 61.922 0 34.137 27.777 61.902 61.91 61.902 34.145 0 61.922-27.777 61.922-61.902 0-34.137-27.785-61.922-61.922-61.922zm0 107.82c-25.316 0-45.91-20.59-45.91-45.902 0-25.32 20.594-45.922 45.91-45.922 25.32 0 45.922 20.602 45.922 45.922 0 25.312-20.602 45.902-45.922 45.902z"/>
  <path d="m450.09 345.04h-210.27c-34.145 0-61.91 27.785-61.91 61.922 0 34.137 27.777 61.902 61.91 61.902h210.27c34.145 0 61.91-27.777 61.91-61.902 0-34.137-27.777-61.922-61.91-61.922zm0 107.82h-210.27c-25.32 0-45.91-20.594-45.91-45.902 0-25.32 20.602-45.922 45.91-45.922h210.27c25.32 0 45.91 20.602 45.91 45.922 0 25.312-20.594 45.902-45.91 45.902z"/>
 </g>
</svg>
