<?xml version="1.0" encoding="UTF-8"?>
<svg width="512pt" height="512pt" version="1.1" viewBox="0 0 512 512" xmlns="http://www.w3.org/2000/svg">
 <path d="m460.8 129.02c-1.0234-3.0703-3.5859-5.6328-7.168-5.6328h-394.24c-2.5586 0-4.0977 0.51172-5.6328 2.5586-1.0234 1.5352-2.0469 3.5859-2.0469 8.1914v272.89c0 4.0977 3.5859 7.6797 7.6797 7.6797h394.24c4.0977 0 7.6797-3.5859 7.6797-7.6797v-275.96c0-0.51172-0.51172-1.5352-0.51172-2.0469zm-16.387 4.6094-177.15 154.62c-6.6562 5.6328-16.895 5.6328-23.551 0l-177.67-154.62zm-382.97 270.85v-261.12l175.11 152.57c5.1211 4.6094 11.777 7.168 18.434 7.168s13.312-2.5586 18.434-7.168l177.15-153.6-0.007812 262.15z"/>
</svg>
