<?xml version="1.0" encoding="UTF-8"?>
<svg width="512pt" height="512pt" version="1.1" viewBox="0 0 512 512" xmlns="http://www.w3.org/2000/svg">
 <g fill="#ff001b">
  <path d="m489.98 442.54c2.3984-2.4883 4.5352-5.3008 7.0195-7.6914 1.3906-2.8984 1.2969-6.293-0.25781-9.1094-17.492-28.492-34.832-57.102-53.23-85-29.551-44.809-59.566-89.301-90.047-133.48-12.219-17.625-27.125-33.344-39.84-50.648-14.406-19.605-27.668-40.059-41.547-60.062l0.003907 0.003907c-6.4336-10.066-13.461-19.738-21.047-28.969-7.6992-8.6641-12.43-7.1133-16.219 3.668-3.9453 11.23-6.1016 23.414-11.867 33.617-20.48 36.25-42.137 71.852-63.398 107.67-16.188 27.266-31.883 54.844-48.848 81.625-14.93 23.57-31.18 46.324-47.098 69.27-15.711 22.648-32.121 44.832-47.281 67.832l-0.003906-0.007812c-2.2188 5.3555-2.4141 11.332-0.55469 16.82 0.39844 1.6211 7.875 2.125 12.062 1.8945 30.906-1.7148 61.789-4.5469 92.699-5.457 31.09-0.91797 62.199-0.30078 93.301-0.23047v-0.003906c1.4297-0.48438 2.9453-0.65234 4.4453-0.49219 53.922 4.9062 107.89-2.9805 161.9-3.2578 16.27-0.085938 32.477 0.78516 48.633 2.2148 20.371-1.2461 40.793-1.3164 61.172-0.20312zm-458.6-9.957c78.484-112.84 154-226.64 216.07-349.81 9.5039 14.625 18.84 30.422 29.594 45.172 13.676 18.762 29.309 36.105 42.66 55.082 23.914 33.988 46.641 68.82 70.094 103.14 13.281 19.434 28 37.938 40.312 57.961 16.93 27.527 32.195 56.098 50.578 88.453z"/>
  <path d="m241.22 155.72c19.438-7.4727 19.844-7.4727 20.738 14.086 1.1055 26.73 1.8672 53.477 1.9922 80.191 0.085937 18.973-1.0352 37.914-1.8398 56.852l-0.003906 0.003906c0.21875 3.8477-0.5625 7.6875-2.2734 11.145-3.5703 4.3984-7.5508 8.4492-11.887 12.102-4.0078-5.8789-11.223-11.754-11.43-17.637-0.67578-18.957 1.5664-37.895 2.0586-56.875 0.60547-23.387 0.45703-46.816 0.90234-70.211 0.17969-9.3633 1.0742-18.688 1.7422-29.656z"/>
  <path d="m230.59 392.77c-0.71484-13.27 7.0781-22.508 19-22.527 13.895-0.023437 22.789 7.7578 23.484 20.535 0.60156 11.059-11.277 21.977-23.859 21.934h0.003906c-5.0547-0.35156-9.7852-2.6055-13.242-6.3047-3.4531-3.6992-5.3789-8.5703-5.3867-13.637z"/>
 </g>
</svg>
