<?xml version="1.0" encoding="UTF-8"?>
<svg width="512pt" height="512pt" version="1.1" viewBox="0 0 512 512" xmlns="http://www.w3.org/2000/svg">
 <g>
  <path d="m256 218.84c53.273 0 96.613-43.348 96.613-96.621s-43.34-96.617-96.613-96.617c-53.277 0-96.621 43.348-96.621 96.621 0 53.27 43.348 96.617 96.621 96.617zm0-178.38c45.078 0 81.75 36.68 81.75 81.758 0 45.074-36.672 81.754-81.75 81.754-45.082 0-81.758-36.68-81.758-81.758 0-45.074 36.676-81.754 81.758-81.754z"/>
  <path d="m426.65 418.34c0-94.102-76.555-170.65-170.65-170.65-94.102 0-170.65 76.555-170.65 170.65 0 0.39453 0.019532 0.77734 0.0625 1.1758v59.449c0 4.1016 3.3281 7.4336 7.4336 7.4336h326.38c4.1055 0 7.4336-3.3281 7.4336-7.4336v-59.453c0-0.17578-0.003906-0.34766-0.015625-0.51562 0.003906-0.21484 0.007813-0.43359 0.007813-0.65625zm-14.863 2.1055v51.086h-311.51v-52.059c0-0.375-0.027344-0.73828-0.0625-1.1328 0-85.902 69.887-155.79 155.79-155.79 85.898 0 155.79 69.887 155.79 155.79l-0.011719 0.054688c-0.027343 0.34375-0.046875 0.67969-0.050781 1.0234 0 0.34766 0.019531 0.69141 0.066406 1.0273z"/>
 </g>
</svg>
