<?xml version="1.0" encoding="UTF-8"?>
<svg width="128pt" height="128pt" version="1.1" viewBox="0 0 128 128" xmlns="http://www.w3.org/2000/svg">
 <g fill="#fff" fill-rule="evenodd">
  <path d="m113.31 62.516v2.8789c-3.9766 3.7266-7.0977 10.797-12.961 11.039 2.7617-4.5977 7.3008-7.418 9.6016-12.48-4.7305 0.76172-8.3906-0.47656-12 0-1.207 0.16016-2.1094 1.2891-3.3594 1.4414-3.043 0.375-6.5312 0.22656-9.6016 0.48047-6.3828 0.53125-9.9922 0.60156-12.48-2.3984 11.441-1.8047 22.773-1.3438 34.559-1.9219-2.1328-1.5469-3.4336-3.9297-6.2383-4.8008 1.4609-1.9688-1.5898-3.332-0.48047-4.8008 4.7852 3.0586 9.3281 6.3555 12.961 10.562z"/>
  <path d="m74.91 9.2344c3.5234 1.1172 9.1172 0.16406 13.441 0.48047 4.4531 7.0703 0.074219 20.047 1.4414 30.238-3.5938-7.3789-1.0742-18.191-1.9219-27.84-20.594-0.41406-46.988 0.47266-71.52 0-0.59766 2.7109 1.1992 5.6602-0.96094 8.1602 4.0664 30.285 0.27344 63.34 2.3984 93.602 8.0234 1.3984 22.691-0.125 29.762 0 0.95312 1.1094-0.12109 0.53516-0.48047 1.4414 5.3438-1.9883 14.867-1.1172 21.602-1.4414 1.2461-0.28906 1.7266 0.19531 1.4414 1.4414 2.1836-1.6016 3.9375-0.69531 6.2383-1.9219 0.26563 1.0625-0.91406 0.68359-0.95703 1.4414 2.8516 0.46094 2.0703-1.2812 3.3594-1.4414 3.5586 1.8438 3.4062-0.40234 8.1602 0.96094-0.31641-4.1875 0.55078-14.738 0.95703-22.559 0.47656 1.7852 1.2188 4.418 0.96094 8.1602-0.066406 1.9922-0.31641 0.097657-0.96094 0 1.3945 3.0898 1.3008 11.781 0.48047 16.801-24.102 0.14844-47.738 1.7422-73.441 0.48047-2.9375-32.848 1.2891-63.344-1.4414-91.684v-13.922c1.0039-0.59766 1.8047-1.3945 2.3984-2.3984h2.3984c2.25 0.79688 7.8281 0.79688 10.078 0h8.6406c8.1484 1.0195 17.367 0.78125 25.922 0h12.004z"/>
 </g>
</svg>
