<?xml version="1.0" encoding="UTF-8"?>
<svg width="512pt" height="512pt" version="1.1" viewBox="0 0 512 512" xmlns="http://www.w3.org/2000/svg">
 <g fill="#fff">
  <path d="m303.62 311.81c8.7031-8.7031 19.457-13.312 31.23-13.312-14.848-20.992-35.84-37.375-60.414-46.594-23.039 22.527-53.246 35.84-86.527 35.84s-63.488-13.312-86.527-35.84c-49.156 18.945-84.484 67.074-84.484 123.39v46.078c0 7.6797 6.1445 14.336 14.336 14.336h242.18c-3.5859-11.266-5.1211-23.551-5.1211-36.352 0.003906-33.281 12.289-64.512 35.332-87.551z"/>
  <path d="m87.551 151.55c0 59.902 45.055 108.54 100.35 108.54s100.35-48.641 100.35-108.54c0-5.6328 0-11.266-0.51172-17.406 15.871-47.617 8.1914-133.63-22.527-120.32-26.109 11.777-173.05-25.09-164.35 36.352-34.816 1.0234-16.383 69.121-12.801 83.969 0 5.6328-0.51172 11.777-0.51172 17.406zm30.723 3.5859c3.5859 0 6.6562-2.5586 6.1445-6.6562-2.0469-16.383-5.1211-56.832 9.2148-53.246 17.922 4.6094 36.863 9.7266 54.273 9.7266 17.406 0 36.352-5.1211 54.273-9.7266 13.824-3.5859 11.266 36.863 9.2148 53.246-0.51172 3.5859 2.5586 6.6562 6.1445 6.6562l5.6328-0.51172c-1.5352 45.055-34.816 81.406-75.777 81.406-40.961 0-74.238-36.352-75.777-81.406z"/>
  <path d="m467.46 330.75c-7.168-7.168-18.945-7.168-26.113 0-7.168 7.168-7.168 18.945 0 26.113 11.266 11.266 17.406 26.625 17.406 42.496 0 34.816-28.16 62.977-62.977 62.977-34.816 0-62.977-28.16-62.977-62.977 0-16.383 6.1445-31.23 16.895-42.496 7.168-7.168 7.168-18.945 0-26.113-7.168-7.168-18.945-7.168-26.113 0-17.922 17.922-27.648 42.496-27.648 68.609 0 54.785 44.543 99.84 99.84 99.84 54.785 0 99.84-44.543 99.84-99.84-0.50391-25.602-10.746-50.18-28.152-68.609z"/>
  <path d="m395.27 400.89c10.238 0 18.434-8.1914 18.434-18.434l-0.003907-75.262c0-10.238-8.1914-18.434-18.434-18.434-10.238 0-18.434 8.1914-18.434 18.434v75.266c0.003906 10.238 8.1953 18.43 18.438 18.43z"/>
 </g>
</svg>
