<?xml version="1.0" encoding="UTF-8"?>
<svg width="512pt" height="512pt" version="1.1" viewBox="0 0 512 512" xmlns="http://www.w3.org/2000/svg">
 <path d="m370.38 198.99h-19.02v-47.656c0-52.582-42.777-95.359-95.359-95.359s-95.359 42.777-95.359 95.359v47.656h-19.02c-22.586 0-40.961 18.375-40.961 40.961v175.11c0 22.586 18.375 40.961 40.961 40.961h228.76c22.586 0 40.961-18.375 40.961-40.961l-0.003906-175.11c0-22.586-18.375-40.961-40.961-40.961zm-179.02-47.652c0-35.645 28.996-64.641 64.641-64.641s64.641 28.996 64.641 64.641v47.656h-129.28zm189.26 263.73c0 5.6484-4.5938 10.238-10.238 10.238l-228.76 0.003907c-5.6484 0-10.238-4.5938-10.238-10.238l-0.003906-175.12c0-5.6484 4.5938-10.238 10.238-10.238h228.76c5.6484 0 10.238 4.5938 10.238 10.238z"/>
</svg>
