<?xml version="1.0" encoding="UTF-8"?>
<svg width="512pt" height="512pt" version="1.1" viewBox="0 0 512 512" xmlns="http://www.w3.org/2000/svg">
 <path d="m180.38 279.48h5.7695c37.477 0 67.969-30.496 67.969-67.973v-46.91c0-37.477-30.488-67.973-67.969-67.973h-5.7695c-37.484 0-67.977 30.496-67.977 67.973v46.91c-0.003906 37.477 30.492 67.973 67.977 67.973zm-47.5-114.89c0-26.188 21.309-47.492 47.5-47.492h5.7695c26.184 0 47.488 21.305 47.488 47.492v46.91c0 26.188-21.305 47.492-47.488 47.492h-5.7695c-26.188 0-47.5-21.305-47.5-47.492zm131.24 140.34h-161.72c-33.879 0-61.441 27.562-61.441 61.441l0.003907 43.223c0 33.879 27.562 61.441 61.441 61.441h161.72c33.879 0 61.441-27.562 61.441-61.441v-43.223c-0.003906-33.887-27.562-61.441-61.441-61.441zm40.961 104.66c0 22.586-18.375 40.961-40.961 40.961l-161.72-0.003906c-22.586 0-40.961-18.375-40.961-40.961v-43.223c0-22.586 18.375-40.961 40.961-40.961h161.72c22.586 0 40.961 18.375 40.961 40.961zm150.66-273.92h-61.441v-61.441c0-5.6523-4.5859-10.238-10.238-10.238s-10.238 4.5859-10.238 10.238v61.441h-61.441c-5.6523 0-10.238 4.5859-10.238 10.238 0 5.6523 4.5859 10.238 10.238 10.238h61.441v61.441c0 5.6523 4.5859 10.238 10.238 10.238s10.238-4.5859 10.238-10.238v-61.441h61.441c5.6523 0 10.238-4.5859 10.238-10.238 0-5.6523-4.5859-10.238-10.238-10.238z"/>
</svg>
