<?xml version="1.0" encoding="UTF-8"?>
<svg width="512pt" height="512pt" version="1.1" viewBox="0 0 512 512" xmlns="http://www.w3.org/2000/svg">
 <path d="m256 64c-50.922 0-99.758 20.227-135.77 56.234s-56.234 84.844-56.234 135.77 20.227 99.758 56.234 135.77 84.844 56.234 135.77 56.234 99.758-20.227 135.77-56.234 56.234-84.844 56.234-135.77-20.227-99.758-56.234-135.77-84.844-56.234-135.77-56.234zm100.48 143.15-128 128c-4.0078 4.0352-9.457 6.3086-15.148 6.3086-5.6875 0-11.141-2.2734-15.145-6.3086l-64-64c-5.4141-5.4141-7.5273-13.301-5.543-20.691 1.9805-7.3945 7.7539-13.168 15.145-15.148 7.3906-1.9805 15.281 0.13281 20.691 5.543l48.852 49.07 112.85-113.07 0.003906-0.003907c5.4102-5.4102 13.297-7.5234 20.691-5.543 7.3906 1.9805 13.164 7.7539 15.145 15.148 1.9805 7.3906-0.13281 15.277-5.543 20.691z" fill="#007335"/>
</svg>
