<?xml version="1.0" encoding="UTF-8"?>
<svg width="512pt" height="512pt" version="1.1" viewBox="0 0 512 512" xmlns="http://www.w3.org/2000/svg">
 <g>
  <path d="m131.59 266.8v-26.164c0-7.5273 3.4805-22.527-3.2266-28.469-6.707-5.9375-25.602-3.5859-34.047-2.8164h-0.003906c-15.738 1.8398-31.316 4.8867-46.59 9.1133-1.5664 0.41797-2.793 1.6406-3.2031 3.2109-0.41406 1.5664 0.046875 3.2344 1.207 4.3672-3.5117 23.469-4.3359 47.258-2.457 70.914-1.5898 1.4648-1.9961 3.8164-0.98438 5.7266 1.0078 1.9102 3.1797 2.9023 5.2852 2.4141 25.137-6.3242 51.359-7.0234 76.797-2.0469 1.9961 0.48828 4.0742-0.38672 5.1211-2.1523 3.5859 0.41016 7.3711-3.0703 4.7109-6.6562-5.0195-6.6055-2.6094-19.762-2.6094-27.441zm-79.156 27.699c-1.6758-22.711-0.78516-45.539 2.6602-68.047 12.879-3.5156 26.008-6.0508 39.273-7.5781 7.0586-1.1953 14.258-1.2969 21.348-0.30469 9.0625 2.2031 6.6562 7.6289 6.6055 15.719v39.016-0.003906c-0.66797 6.7227-0.32422 13.504 1.0234 20.121-23.488-4.1562-47.559-3.7891-70.91 1.0781z"/>
  <path d="m131.59 410.01v-26.008c0-7.5273 3.4805-22.527-3.2266-28.469-6.707-5.9375-25.602-3.5859-34.047-2.8164l-0.003906 0.003906c-15.738 1.8398-31.316 4.8867-46.59 9.1133-1.5664 0.41406-2.793 1.6367-3.2031 3.207-0.41406 1.5664 0.046875 3.2344 1.207 4.3672-3.5117 23.469-4.3359 47.262-2.457 70.914-1.5898 1.4648-1.9961 3.8164-0.98438 5.7266 1.0078 1.9102 3.1797 2.9023 5.2852 2.4141 25.137-6.3242 51.359-7.0234 76.797-2.0469 1.9961 0.48828 4.0742-0.38672 5.1211-2.1523 3.5859 0.41016 7.3711-3.0703 4.7109-6.6562-5.0195-6.7578-2.6094-19.914-2.6094-27.598zm-79.156 27.699c-1.6758-22.707-0.78516-45.535 2.6602-68.043 12.879-3.5156 26.008-6.0508 39.273-7.5781 7.0586-1.1953 14.258-1.3008 21.348-0.30859 9.0625 2.2031 6.6562 7.6289 6.6055 15.719v39.016c-0.66797 6.7227-0.32422 13.504 1.0234 20.121-23.488-4.1562-47.559-3.793-70.91 1.0742z"/>
  <path d="m338.59 122.88c38.605 6.4531 76.543 11.727 114.54-0.61328 5.6836-1.8438 3.2773-10.855-2.457-9.0117-47.41 15.359-94.309 1.8945-141.98-4.6094h-0.003906c-42.676-5.6211-85.938-5.0859-128.46 1.5898-5.9375 0.87109-3.4297 9.8828 2.457 9.0117 52.84-7.8359 103.38-5.0703 155.91 3.6328z"/>
  <path d="m314.88 245.76c-42.676-5.625-85.938-5.0898-128.46 1.5859-5.9375 0.87109-3.4297 9.8828 2.457 9.0117 52.789-7.9883 103.37-5.1211 155.9 3.5859 38.605 6.4531 76.543 11.727 114.54-0.61328 5.6836-1.8438 3.2773-10.855-2.457-9.0117-47.254 15.406-94.309 1.9414-141.98-4.5586z"/>
  <path d="m456.86 387.33c-47.41 15.359-94.309 1.8945-141.98-4.6094h-0.003906c-42.676-5.6211-85.938-5.0859-128.46 1.5898-5.9375 0.87109-3.4297 9.8828 2.457 9.0117 52.789-7.9883 103.37-5.1211 155.9 3.5859 38.605 6.4531 76.543 11.727 114.54-0.61328 5.7383-2.0547 3.2812-10.859-2.4531-8.9648z"/>
  <path d="m143.36 46.078c-5.1211 7.4766-10.238 15.359-15.359 22.836-7.6289-5.9375-25.035-3.2266-33.484-2.457-15.742 1.8398-31.316 4.8867-46.594 9.1133-1.5664 0.41406-2.7891 1.6406-3.2031 3.207-0.41406 1.5703 0.046875 3.2383 1.207 4.3711-3.543 23.309-4.4375 46.941-2.6602 70.453-1.5898 1.4609-1.9961 3.8125-0.98438 5.7266 1.0078 1.9102 3.1797 2.8984 5.2852 2.4141 12.109-2.9883 24.5-4.7031 36.965-5.1211 0.71875 0.76953 1.3828 1.5859 2.1523 2.3047h-0.003906c1.7578 1.7266 4.2422 2.4922 6.6641 2.0547 2.4258-0.4375 4.4844-2.0234 5.5234-4.2578 8.5938 0.39062 17.148 1.4023 25.602 3.0195 1.9922 0.49219 4.0703-0.38281 5.1172-2.1484 3.5859 0.41016 7.3711-3.0703 4.7109-6.6562-4.8633-6.6055-2.457-19.762-2.457-27.441v-25.91c0-1.8438 0-4.0977 0.41016-6.6055 7.4062-12.867 15.461-25.309 24.164-37.324 5.7891-8.0352-7.5234-15.719-13.055-7.5781zm-27.648 29.289c2.3477 0.33203 4.4531 1.6094 5.8359 3.5312-11.828 19.555-22.414 39.836-31.691 60.723-11.52-13.977-20.48-29.953-32.562-43.418-0.96484-1.1172-2.2539-1.9023-3.6875-2.25 0.41016-3.4141 0.88672-6.9805 1.4336-10.699v-0.003906c12.879-3.5156 26.008-6.0469 39.27-7.5781 7.0781-1.1992 14.297-1.3047 21.402-0.30469zm-63.281 75.93c-0.90625-12.543-1.043-25.125-0.41016-37.684 8.8047 11.059 16.129 23.141 24.883 34.254-8.2227 0.60547-16.398 1.75-24.473 3.4297zm70.809-1.0234c-6.7773-1.1836-13.613-2.0039-20.48-2.4609 5.9062-13.484 12.355-26.641 19.355-39.477v21.816c-0.63672 6.7227-0.25781 13.508 1.125 20.121z"/>
 </g>
</svg>
