<?xml version="1.0" encoding="UTF-8"?>
<svg width="512pt" height="512pt" version="1.1" viewBox="0 0 512 512" xmlns="http://www.w3.org/2000/svg">
 <g>
  <path d="m256 162.66c-51.488 0-93.324 41.859-93.324 93.348 0 51.488 41.836 93.324 93.324 93.324 51.488 0 93.348-41.836 93.348-93.324 0-51.488-41.859-93.348-93.348-93.348zm0 10.195c45.984 0 83.176 37.168 83.176 83.152s-37.191 83.152-83.176 83.152-83.152-37.168-83.152-83.152 37.168-83.152 83.152-83.152z"/>
  <path d="m256 196.5c-17.645 0-32.027 14.555-32.57 32.543v0.003906c-0.046875 1.3516 0.44922 2.668 1.375 3.6562 0.92578 0.98438 2.207 1.5625 3.5625 1.6055 2.8047 0.082031 5.1484-2.1289 5.2344-4.9375 0.38672-12.797 10.344-22.699 22.398-22.699 12.332 0 22.398 10.328 22.398 23.426 0 12.801-9.6445 23.035-21.695 23.426h-0.003907c-2.8086 0.085937-5.0156 2.4297-4.9336 5.2344 0.039062 1.3555 0.61719 2.6367 1.6055 3.5625 0.98828 0.92578 2.3008 1.4219 3.6562 1.375 17.637-0.57031 31.566-15.598 31.566-33.598 0-18.402-14.555-33.598-32.594-33.598z"/>
  <path d="m256.85 252.82c-2.8086 0.003907-5.082 2.2812-5.0859 5.0859v29.34c0.003906 2.8086 2.2773 5.082 5.0859 5.0859 1.3516 0.003907 2.6523-0.52734 3.6094-1.4844 0.96094-0.95312 1.5-2.25 1.5-3.6016v-29.34c0-1.3516-0.53906-2.6484-1.5-3.6016-0.95703-0.95313-2.2578-1.4883-3.6094-1.4844z"/>
  <path d="m256.86 301.18c-2.3359 0-4.5742 0.93359-6.2227 2.5898-1.6484 1.6523-2.5703 3.8984-2.5586 6.2344 0.003906 4.8477 3.9336 8.7734 8.7812 8.7812 4.8477-0.007812 8.7773-3.9336 8.7812-8.7812 0.007813-2.3359-0.91406-4.582-2.5586-6.2344-1.6484-1.6562-3.8867-2.5898-6.2227-2.5898z"/>
 </g>
</svg>
