<?xml version="1.0" encoding="UTF-8"?>
<svg width="128pt" height="128pt" version="1.1" viewBox="0 0 128 128" xmlns="http://www.w3.org/2000/svg">
 <path d="m84 22v-14h-58c-3.3125 0.003906-5.9961 2.6875-6 6v100c0.003906 3.3125 2.6875 5.9961 6 6h76c3.3125-0.003906 5.9961-2.6875 6-6v-82h-14c-5.5195-0.007812-9.9922-4.4805-10-10zm-20 74c-2.4258 0-4.6133-1.4609-5.543-3.7031-0.92969-2.2422-0.41406-4.8242 1.3008-6.5391 1.7148-1.7148 4.2969-2.2305 6.5391-1.3008 2.2422 0.92969 3.7031 3.1172 3.7031 5.543-0.003906 3.3125-2.6875 5.9961-6 6zm2-24.125v6.125c0 1.1055-0.89453 2-2 2s-2-0.89453-2-2v-8c0-1.1055 0.89453-2 2-2 4.8555 0 9.2305-2.9219 11.086-7.4062 1.8594-4.4844 0.83203-9.6484-2.6016-13.078-3.4297-3.4336-8.5938-4.4609-13.078-2.6016-4.4844 1.8555-7.4062 6.2305-7.4062 11.086 0 1.1055-0.89453 2-2 2s-2-0.89453-2-2c0-4.1289 1.5938-8.0977 4.4531-11.074 2.8555-2.9805 6.7539-4.7383 10.879-4.9102s8.1562 1.2539 11.25 3.9844c3.0977 2.7305 5.0195 6.5508 5.3633 10.664 0.34375 4.1133-0.91406 8.2031-3.5156 11.41-2.5977 3.207-6.3359 5.2852-10.43 5.8008zm0 18.125c0 0.80859-0.48828 1.5391-1.2344 1.8477s-1.6094 0.13672-2.1797-0.43359c-0.57031-0.57031-0.74219-1.4336-0.43359-2.1797s1.0391-1.2344 1.8477-1.2344c1.1055 0 2 0.89453 2 2zm22-68v-11.172l17.172 17.172h-11.172c-3.3125-0.003906-5.9961-2.6875-6-6z"/>
</svg>
